<svg xmlns="http://www.w3.org/2000/svg" viewBox="0 0 8.15 8.14"><title>call</title><g id="Layer_2" data-name="Layer 2"><g id="Layer_1-2" data-name="Layer 1"><path d="M4.42,8.14H3.69l-.41-.06a3.88,3.88,0,0,1-1-.32,3.48,3.48,0,0,1-.88-.59,6.11,6.11,0,0,1-.56-.58,3.58,3.58,0,0,1-.58-1A3.87,3.87,0,0,1,0,4.38a4.62,4.62,0,0,1,0-1,4,4,0,0,1,.34-1A3.84,3.84,0,0,1,1,1.4,4.58,4.58,0,0,1,1.72.74,3.77,3.77,0,0,1,2.65.25,3.34,3.34,0,0,1,3.53,0l.2,0h.69l0,0a3.05,3.05,0,0,1,.41.05,4,4,0,0,1,1.2.44,4.09,4.09,0,0,1,1.15,1,3.72,3.72,0,0,1,.58.93,4,4,0,0,1,.34,1.36,4,4,0,0,1,0,1,4.23,4.23,0,0,1-.37,1.14,4,4,0,0,1-.57.86,4.58,4.58,0,0,1-.73.66,3.77,3.77,0,0,1-.93.49,3.25,3.25,0,0,1-.88.22ZM1.8,2.58a4,4,0,0,0,.16,1A3.86,3.86,0,0,0,5.61,6.35a.42.42,0,0,0,.31-.13l.28-.29a.4.4,0,0,0,.1-.15A.58.58,0,0,0,5.9,5c-.19-.06-.39-.12-.58-.16A.52.52,0,0,0,4.83,5a1.21,1.21,0,0,0-.16.16.13.13,0,0,1-.15,0,2.29,2.29,0,0,1-1-.66A2.33,2.33,0,0,1,3,3.62a.11.11,0,0,1,0-.13l.14-.15a.52.52,0,0,0,.15-.53c0-.17-.09-.35-.14-.52A.94.94,0,0,0,3,2a.53.53,0,0,0-.83,0L2,2.18A.44.44,0,0,0,1.8,2.58Z" fill="#102840"/></g></g></svg>