<svg xmlns="http://www.w3.org/2000/svg" viewBox="0 0 10.49 10.49"><title>instagram</title><g id="Layer_2" data-name="Layer 2"><g id="Layer_1-2" data-name="Layer 1"><path d="M5.23,4A1.23,1.23,0,0,0,4,5.25,1.22,1.22,0,1,0,5.23,4Zm0,0A1.23,1.23,0,0,0,4,5.25,1.22,1.22,0,1,0,5.23,4Zm0,0A1.23,1.23,0,0,0,4,5.25,1.22,1.22,0,1,0,5.23,4Zm0,0A1.23,1.23,0,0,0,4,5.25,1.22,1.22,0,1,0,5.23,4Zm3-.3A1.41,1.41,0,0,0,6.78,2.28H3.73A1.41,1.41,0,0,0,2.28,3.74V5.23c0,.53,0,1,0,1.57A1.43,1.43,0,0,0,3.69,8.21H6.78A1.43,1.43,0,0,0,8.21,6.78Zm-3,3.35A1.83,1.83,0,1,1,7.07,5.24,1.83,1.83,0,0,1,5.24,7.07ZM7.16,3.74a.43.43,0,0,1-.44-.42.43.43,0,0,1,.43-.45.44.44,0,1,1,0,.87ZM5.23,4A1.23,1.23,0,0,0,4,5.25,1.22,1.22,0,1,0,5.23,4Zm3-.3A1.41,1.41,0,0,0,6.78,2.28H3.73A1.41,1.41,0,0,0,2.28,3.74V5.23c0,.53,0,1,0,1.57A1.43,1.43,0,0,0,3.69,8.21H6.78A1.43,1.43,0,0,0,8.21,6.78Zm-3,3.35A1.83,1.83,0,1,1,7.07,5.24,1.83,1.83,0,0,1,5.24,7.07ZM7.16,3.74a.43.43,0,0,1-.44-.42.43.43,0,0,1,.43-.45.44.44,0,1,1,0,.87ZM5.23,4A1.23,1.23,0,0,0,4,5.25,1.22,1.22,0,1,0,5.23,4Zm3-.3A1.41,1.41,0,0,0,6.78,2.28H3.73A1.41,1.41,0,0,0,2.28,3.74V5.23c0,.53,0,1,0,1.57A1.43,1.43,0,0,0,3.69,8.21H6.78A1.43,1.43,0,0,0,8.21,6.78Zm-3,3.35A1.83,1.83,0,1,1,7.07,5.24,1.83,1.83,0,0,1,5.24,7.07ZM7.16,3.74a.43.43,0,0,1-.44-.42.43.43,0,0,1,.43-.45.44.44,0,1,1,0,.87ZM5.23,4A1.23,1.23,0,0,0,4,5.25,1.22,1.22,0,1,0,5.23,4Zm0,0A1.23,1.23,0,0,0,4,5.25,1.22,1.22,0,1,0,5.23,4Zm0,0A1.23,1.23,0,0,0,4,5.25,1.22,1.22,0,1,0,5.23,4Z" fill="#102840"/><path d="M5.26,0a5.25,5.25,0,1,0,5.23,5.26A5.24,5.24,0,0,0,5.26,0ZM8.82,6.75A2,2,0,0,1,6.75,8.81h-3A2,2,0,0,1,1.67,6.74V3.67a2,2,0,0,1,2-2c.53,0,1.06,0,1.59,0H6.72a2,2,0,0,1,2.1,2.08Z" fill="#102840"/></g></g></svg>