<svg xmlns="http://www.w3.org/2000/svg" viewBox="0 0 37.45 31.13"><title>Asset 3</title><g id="Layer_2" data-name="Layer 2"><g id="Layer_1-2" data-name="Layer 1"><path d="M37.35,15.26C36,11.14,34.74,7,33.43,2.86a3.06,3.06,0,0,0-.32-.77,4.23,4.23,0,0,0-5-1.87c-3.89,1.35-7.8,2.66-11.7,4C12.8,5.48,9.18,6.75,5.56,8a3,3,0,0,0-1.19.76,4.43,4.43,0,0,0-1.12,1.9.49.49,0,0,1-.36.39A4,4,0,0,0,.14,13.72a2.29,2.29,0,0,0-.13.73C0,18.73,0,23,0,27.3a3.65,3.65,0,0,0,.57,2A3.57,3.57,0,0,0,2.92,31a8.44,8.44,0,0,0,1.59.1h23a2.57,2.57,0,0,0,1.22-.25,3.72,3.72,0,0,0,2.4-3.53q0-3.13,0-6.29a.33.33,0,0,1,.26-.37c1.35-.51,2.7-1,4-1.55A3.55,3.55,0,0,0,37.35,15.26Zm-7.66,11.3c0,.27,0,.54,0,.82a2.24,2.24,0,0,1-1.2,2,1.53,1.53,0,0,1-.89.26c-3.95,0-7.9,0-11.85,0v0H5.55c-.54,0-1.09,0-1.63,0a2.26,2.26,0,0,1-1.83-.84,2.05,2.05,0,0,1-.55-1.44c0-4,0-8,0-12,0-.29,0-.59,0-.89a2.09,2.09,0,0,1,2-2c1.48,0,2.95-.07,4.43-.07l19.64,0a1.36,1.36,0,0,1,.55.14,2.25,2.25,0,0,1,1.42,2.06c0,1.47.06,3,.06,4.42C29.72,21.58,29.7,24.07,29.69,26.56Zm5.07-8.77c-.74.33-1.51.6-2.26.89l-1,.38-.25.07a5,5,0,0,1,0-.51c0-1.33-.05-2.67,0-4A3.9,3.9,0,0,0,28.32,11a2.91,2.91,0,0,0-.78-.08c-3.44,0-6.88-.06-10.33-.09H5.35c-.17,0-.33,0-.54,0,0-.1,0-.16.05-.2A2.75,2.75,0,0,1,6.24,9.34l10.5-3.63,11.57-4a2.79,2.79,0,0,1,3.58,1.31.83.83,0,0,1,.07.13h0a2,2,0,0,1,.11.35l.73,2.25h0l.06.17c.07.22.13.43.2.64.86,2.72,1.71,5.44,2.57,8.15a9.32,9.32,0,0,1,.23.91A1.82,1.82,0,0,1,34.76,17.79Z" fill="#ed8d4c"/><path d="M10.88,25h4.63a8.77,8.77,0,0,1,1.14.1c.32,0,.46.28.46.7s-.13.57-.46.62a7,7,0,0,1-.91.07c-3.45,0-6.91,0-10.36,0a.85.85,0,0,1-.69-.68.73.73,0,0,1,.6-.78C5.66,25,6,25,6.41,25Z" fill="#ed8d4c"/><path d="M8.59,23.33H5.39a.81.81,0,0,1-.7-.7.65.65,0,0,1,.64-.71l5.89-.05h.47a.75.75,0,0,1,.72.52.85.85,0,0,1-.39.91.53.53,0,0,1-.22,0Z" fill="#ed8d4c"/><path d="M9,10.88H9Z" fill="#ed8d4c"/><polygon points="31.96 3.18 31.96 3.18 31.96 3.18 31.96 3.18" fill="#ed8d4c"/></g></g></svg>