<svg xmlns="http://www.w3.org/2000/svg" viewBox="0 0 10.51 10.49"><title>facebook</title><g id="Layer_2" data-name="Layer 2"><g id="Layer_1-2" data-name="Layer 1"><path d="M6.38,10.38V7.07c0-.07,0-.08.09-.08H7.53c.08,0,.1,0,.11-.1l.15-1.13a.39.39,0,0,1,0-.15c0-.06,0-.07-.08-.07H6.45s-.07,0-.07,0c0-.35,0-.69,0-1A.5.5,0,0,1,7,3.93c.27,0,.54,0,.81,0,.1,0,.1,0,.1-.11V2.71c0-.07,0-.09-.08-.09-.42,0-.84-.06-1.25,0A1.65,1.65,0,0,0,4.93,4a5.07,5.07,0,0,0,0,.68v.73c0,.07,0,.09-.09.09H3.73c-.07,0-.09,0-.09.09V6.91c0,.07,0,.08.09.08H4.8c.07,0,.09,0,.09.08v3.42A5.25,5.25,0,1,1,10.51,5.1,5.22,5.22,0,0,1,6.38,10.38Z" fill="#102840"/></g></g></svg>