<svg xmlns="http://www.w3.org/2000/svg" viewBox="0 0 10.5 10.5"><title>location</title><g id="Layer_2" data-name="Layer 2"><g id="Layer_1-2" data-name="Layer 1"><path d="M5.24,10.5A5.25,5.25,0,1,1,10.5,5.39,5.23,5.23,0,0,1,5.24,10.5Zm0-.93,0-.07c.13-.2.25-.41.37-.62l1-1.79a15.13,15.13,0,0,0,.8-1.55A5.63,5.63,0,0,0,8,4.15,2.68,2.68,0,0,0,7.73,2.5a2.66,2.66,0,0,0-1.4-1.34,2.64,2.64,0,0,0-2.25,0,2.6,2.6,0,0,0-1.1,1,2.73,2.73,0,0,0-.47,1.41A3.8,3.8,0,0,0,2.77,5a8.28,8.28,0,0,0,.52,1.18c.35.64.72,1.28,1.08,1.91l.76,1.28A2.12,2.12,0,0,0,5.25,9.57Z" fill="#102840"/><path d="M6.22,3.6a1,1,0,1,1-1-1A1,1,0,0,1,6.22,3.6Z" fill="#102840"/></g></g></svg>