<svg xmlns="http://www.w3.org/2000/svg" viewBox="0 0 10.5 10.5"><title>web</title><g id="Layer_2" data-name="Layer 2"><g id="Layer_1-2" data-name="Layer 1"><path d="M5.25,0A5.25,5.25,0,1,1,0,5.28,5.24,5.24,0,0,1,5.25,0ZM9.1,5.35A3.55,3.55,0,0,0,9,4.49,3.71,3.71,0,0,0,7.75,2.43a3.7,3.7,0,0,0-3.09-.87A3.8,3.8,0,0,0,2,3.24a3.49,3.49,0,0,0-.55,2.68A3.66,3.66,0,0,0,2.75,8.07a3.75,3.75,0,0,0,3,.89A3.7,3.7,0,0,0,7.82,8,3.64,3.64,0,0,0,9.1,5.35Z" fill="#102840"/><path d="M6.83,5H5.45V3.71h1s.06,0,.07,0A4.17,4.17,0,0,1,6.84,5S6.83,5,6.83,5Z" fill="#102840"/><path d="M6.84,5.5a3.93,3.93,0,0,1-.15.92,2,2,0,0,1-.08.26.08.08,0,0,1-.06,0H5.45V5.5Z" fill="#102840"/><path d="M4.93,3.71V4.92s0,.07,0,.07H3.65c0-.14,0-.27,0-.4a4,4,0,0,1,.2-.83s0,0,.06,0h1Z" fill="#102840"/><path d="M7.35,5a4.56,4.56,0,0,0-.26-1.27H8.14a.07.07,0,0,1,.08,0A3.38,3.38,0,0,1,8.57,5V5Z" fill="#102840"/><path d="M1.92,5c0-.15.05-.3.08-.45a3.17,3.17,0,0,1,.28-.78s0,0,.07,0h1l-.06.2a5,5,0,0,0-.17,1s0,.07,0,.07H1.92Z" fill="#102840"/><path d="M4.93,6.72h-1A4.53,4.53,0,0,1,3.66,5.5H4.93Z" fill="#102840"/><path d="M7.35,5.5H8.59c0,.21-.07.41-.12.61s-.14.38-.21.56a.12.12,0,0,1-.07,0H7.12A4.62,4.62,0,0,0,7.35,5.5Z" fill="#102840"/><path d="M1.93,5.5H3.14a5.58,5.58,0,0,0,.22,1.22h-1c-.05,0-.07,0-.09,0a3.28,3.28,0,0,1-.31-1.11Z" fill="#102840"/><path d="M7.91,7.24A3.32,3.32,0,0,1,6,8.41l0,0,0,0a3.57,3.57,0,0,0,.85-1.08A.09.09,0,0,1,7,7.23h.94Z" fill="#102840"/><path d="M6,2.1A3.25,3.25,0,0,1,7.84,3.19H6.91a.08.08,0,0,1-.07,0,3.66,3.66,0,0,0-.81-1Z" fill="#102840"/><path d="M4.31,8.36A3.24,3.24,0,0,1,2.6,7.24h.9s0,0,.07,0A3.24,3.24,0,0,0,4.3,8.34Z" fill="#102840"/><path d="M4.32,2.14a4.31,4.31,0,0,0-.39.48,5.58,5.58,0,0,0-.32.52s0,0-.07,0H2.66A3.23,3.23,0,0,1,4.32,2.14Z" fill="#102840"/><path d="M4.93,7.24v.95a2.27,2.27,0,0,1-.84-.95Z" fill="#102840"/><path d="M6.34,7.24a2.73,2.73,0,0,1-.89.93V7.24Z" fill="#102840"/><path d="M5.45,3.19V2.31a2.83,2.83,0,0,1,.84.88Z" fill="#102840"/><path d="M4.14,3.19a2.77,2.77,0,0,1,.79-.88v.88Z" fill="#102840"/></g></g></svg>