<svg xmlns="http://www.w3.org/2000/svg" viewBox="0 0 10.49 10.57"><title>whatsapp</title><g id="Layer_2" data-name="Layer 2"><g id="Layer_1-2" data-name="Layer 1"><path d="M0,10.57c.1-.31.19-.59.29-.87.18-.55.35-1.1.54-1.64a.49.49,0,0,0,0-.44A5.14,5.14,0,0,1,4.09.16,5.12,5.12,0,0,1,10.37,4a5.12,5.12,0,0,1-4,6.16A5,5,0,0,1,3,9.78a.51.51,0,0,0-.42,0l-2.45.78Zm1.33-1.3c.52-.17,1-.32,1.45-.45a.45.45,0,0,1,.36,0A4.57,4.57,0,0,0,5,9.44,4.3,4.3,0,1,0,1.75,7.51a.35.35,0,0,1,0,.38C1.64,8.33,1.49,8.77,1.33,9.27Z" /><path d="M6.58,7.73a3.9,3.9,0,0,1-1.41-.54A5.28,5.28,0,0,1,2.89,4.54a1.49,1.49,0,0,1,.28-1.67A.74.74,0,0,1,4,2.67a.33.33,0,0,1,.17.18c.12.28.21.58.34.85a.55.55,0,0,1-.11.66c-.32.38-.31.38,0,.79A3.66,3.66,0,0,0,5.77,6.41a.31.31,0,0,0,.45-.08c.07-.09.15-.16.22-.25.26-.3.26-.3.6-.13l.79.42A.29.29,0,0,1,8,6.71C7.94,7.33,7.44,7.73,6.58,7.73Z" /></g></g></svg>